# xmcd
#
# Track frame offsets:
#	150
#	15123
#	27768
#	38303
#	57953
#	76515
#	103880
#	115373
#	124015
#	138365
#	148798
#	167408
#	188138
#	198693
#	215120
#	224623
#	236820
#	246968
#
# Disc length: 3533 seconds
#
# Revision: 0
# Processed by: cddbd v1.5.2PL0 Copyright (c) Steve Scherf et al.
# Submitted via: EasyCDDAExtractor 10.0.6.1
#
DISCID=fc0dcb12
DTITLE=Various Artist - The Eddie Crook Co. Vol. 21991
DYEAR=1991
DGENRE=Gospel
TTITLE0=Bishops - He's In The Midst6
TTITLE1=Dixie Melody Boys - Celebration
TTITLE2=McKameys - Somehow He Will
TTITLE3=Cedar Ridge - I Need Jesus
TTITLE4=Chandlers - Walking Back Down
TTITLE5=Chandlers - Walking Back Down w/encore
TTITLE6=Larry Petree - I'd Go In A Heartbeat
TTITLE7=Days - I'm Gonna Leave Here
TTITLE8=Encouragers - Walking Miracle
TTITLE9=Gina Vera and Heritage - Angels Watching Over Me
TTITLE10=Michael Cassidy - It Came From Calvary
TTITLE11=Mashburns - Wings Of An Angel
TTITLE12=Gabbards - Shouting Down The Walls
TTITLE13=Hollands - He Can't See Through The Blood
TTITLE14=J.C. and Dot Hayes - Don't Give Up The Battle
TTITLE15=Tim and Khristy Peace - Anchored Near The Heart Of God
TTITLE16=McKameys - Getting Used To The Dark
TTITLE17=Cedar Ridge - I've Got Something To Praise God For
EXTD=
EXTT0=
EXTT1=
EXTT2=
EXTT3=
EXTT4=
EXTT5=
EXTT6=
EXTT7=
EXTT8=
EXTT9=
EXTT10=
EXTT11=
EXTT12=
EXTT13=
EXTT14=
EXTT15=
EXTT16=
EXTT17=
PLAYORDER=
